<mxfile host="app.diagrams.net" modified="2022-07-27T11:48:16.046Z" agent="5.0 (Macintosh; Intel Mac OS X 10_15_7) AppleWebKit/537.36 (KHTML, like Gecko) Chrome/103.0.0.0 Safari/537.36" etag="YbfdGBQ_c5_EFjEoyGTE" version="20.1.1" type="github">
  <diagram id="xykEzm4OlCJuxlVLNCdi" name="Page-1">
    <mxGraphModel dx="1868" dy="659" grid="1" gridSize="10" guides="1" tooltips="1" connect="1" arrows="1" fold="1" page="1" pageScale="1" pageWidth="850" pageHeight="1100" math="0" shadow="0">
      <root>
        <mxCell id="0" />
        <mxCell id="1" parent="0" />
        <mxCell id="KObEu7XeI7qinJBVQSto-1" value="&lt;font style=&quot;font-size: 16px;&quot;&gt;Call Function&lt;/font&gt;" style="rounded=0;whiteSpace=wrap;html=1;fillColor=#f5f5f5;fontColor=#333333;strokeColor=#666666;" vertex="1" parent="1">
          <mxGeometry x="70" y="140" width="120" height="60" as="geometry" />
        </mxCell>
        <mxCell id="KObEu7XeI7qinJBVQSto-3" value="&lt;font style=&quot;font-size: 13px;&quot;&gt;Depth有没有超过1024 -&amp;gt; ErrDepth&lt;/font&gt;" style="rounded=0;whiteSpace=wrap;html=1;fontSize=16;fillColor=#d5e8d4;strokeColor=#82b366;" vertex="1" parent="1">
          <mxGeometry x="160" y="240" width="200" height="60" as="geometry" />
        </mxCell>
        <mxCell id="KObEu7XeI7qinJBVQSto-4" value="&lt;span style=&quot;font-size: 13px;&quot;&gt;caller的余额是否充足 -&amp;gt; ErrInsufficientBalance&lt;/span&gt;" style="rounded=0;whiteSpace=wrap;html=1;fontSize=16;fillColor=#d5e8d4;strokeColor=#82b366;" vertex="1" parent="1">
          <mxGeometry x="160" y="320" width="200" height="60" as="geometry" />
        </mxCell>
        <mxCell id="KObEu7XeI7qinJBVQSto-5" value="&lt;span style=&quot;font-size: 13px;&quot;&gt;如果调用的合约地址不存在（如果开启了debug，在这里会记录一下），就用CreateAccount创建一个地址&lt;br&gt;&lt;br&gt;然后再执行evm.Context.Transfer&lt;br&gt;&lt;/span&gt;" style="rounded=0;whiteSpace=wrap;html=1;fontSize=16;fillColor=#d5e8d4;strokeColor=#82b366;" vertex="1" parent="1">
          <mxGeometry x="160" y="400" width="200" height="160" as="geometry" />
        </mxCell>
        <mxCell id="KObEu7XeI7qinJBVQSto-6" value="&lt;span style=&quot;font-size: 13px;&quot;&gt;检查合约是否preCompile，如果有就执行pc的合约（传入input data等即可）&lt;br&gt;&lt;br&gt;如果没有，则从stateDB获取合约代码，并用contract.SetCallCode执行这个合约（如果合约没有代码会被abort）&lt;br&gt;&lt;/span&gt;" style="rounded=0;whiteSpace=wrap;html=1;fontSize=16;fillColor=#d5e8d4;strokeColor=#82b366;" vertex="1" parent="1">
          <mxGeometry x="160" y="580" width="200" height="190" as="geometry" />
        </mxCell>
        <mxCell id="KObEu7XeI7qinJBVQSto-7" value="&lt;font style=&quot;font-size: 16px;&quot;&gt;Depth检查&lt;/font&gt;" style="text;html=1;strokeColor=none;fillColor=none;align=center;verticalAlign=middle;whiteSpace=wrap;rounded=0;fontSize=13;" vertex="1" parent="1">
          <mxGeometry x="-10" y="255" width="90" height="30" as="geometry" />
        </mxCell>
        <mxCell id="KObEu7XeI7qinJBVQSto-8" value="&lt;font style=&quot;font-size: 16px;&quot;&gt;Insufficient Blance检查&lt;/font&gt;" style="text;html=1;strokeColor=none;fillColor=none;align=center;verticalAlign=middle;whiteSpace=wrap;rounded=0;fontSize=13;" vertex="1" parent="1">
          <mxGeometry x="-55" y="338.75" width="180" height="22.5" as="geometry" />
        </mxCell>
        <mxCell id="KObEu7XeI7qinJBVQSto-9" value="&lt;font style=&quot;font-size: 16px;&quot;&gt;检查调用的合约是否存在，不存在就创建一个&lt;/font&gt;" style="text;html=1;strokeColor=none;fillColor=none;align=center;verticalAlign=middle;whiteSpace=wrap;rounded=0;fontSize=13;" vertex="1" parent="1">
          <mxGeometry x="-57.5" y="456.88" width="185" height="46.25" as="geometry" />
        </mxCell>
        <mxCell id="KObEu7XeI7qinJBVQSto-10" value="&lt;font style=&quot;font-size: 16px;&quot;&gt;run contract code&lt;/font&gt;" style="text;html=1;strokeColor=none;fillColor=none;align=center;verticalAlign=middle;whiteSpace=wrap;rounded=0;fontSize=13;" vertex="1" parent="1">
          <mxGeometry x="-40" y="662.5" width="150" height="25" as="geometry" />
        </mxCell>
        <mxCell id="KObEu7XeI7qinJBVQSto-12" value="&lt;span style=&quot;font-size: 16px;&quot;&gt;出现错误，revert snapshot&lt;/span&gt;" style="text;html=1;strokeColor=none;fillColor=none;align=center;verticalAlign=middle;whiteSpace=wrap;rounded=0;fontSize=13;" vertex="1" parent="1">
          <mxGeometry x="-70" y="850" width="195" height="40" as="geometry" />
        </mxCell>
        <mxCell id="KObEu7XeI7qinJBVQSto-13" value="&lt;span style=&quot;font-size: 13px;&quot;&gt;如果存在error，就把revert snapshot&lt;br&gt;&lt;br&gt;如果错误不是ExecutionReverted，就把gas重置为0&lt;br&gt;&lt;/span&gt;" style="rounded=0;whiteSpace=wrap;html=1;fontSize=16;fillColor=#d5e8d4;strokeColor=#82b366;" vertex="1" parent="1">
          <mxGeometry x="145" y="790" width="230" height="160" as="geometry" />
        </mxCell>
      </root>
    </mxGraphModel>
  </diagram>
</mxfile>
